<svg width="1920" height="158" viewBox="0 0 1920 158" fill="none" xmlns="http://www.w3.org/2000/svg">
<path d="M379.357 91.9792V157.101H367.664L339.061 115.725H338.521V157.101H325.029V91.9792H336.902L365.325 133.355H365.955V91.9792H379.357Z" fill="white" fill-opacity="0.05"/>
<path d="M300.834 112.937C299.035 106.82 294.088 103.042 286.982 103.042C276.908 103.042 270.072 110.778 270.072 124.45C270.072 138.212 276.728 146.037 287.072 146.037C296.382 146.037 301.914 140.775 302.093 132.545H287.972V122.381H315.136V130.476C315.136 147.566 303.443 158 286.982 158C268.723 158 256.311 145.227 256.311 124.63C256.311 103.492 269.533 91.0796 286.713 91.0796C301.374 91.0796 312.707 100.074 314.506 112.937H300.834Z" fill="white" fill-opacity="0.05"/>
<path d="M246.596 91.9792V157.101H233.104V91.9792H246.596Z" fill="white" fill-opacity="0.05"/>
<path d="M177.876 157.101H163.305L185.881 91.9792H203.241L225.728 157.101H211.246L206.389 142.08H182.823L177.876 157.101ZM186.241 131.556H202.971L194.786 106.641H194.336L186.241 131.556Z" fill="white" fill-opacity="0.05"/>
<path d="M117.16 157.101V91.9792H142.705C157.546 91.9792 166.001 101.064 166.001 113.926C166.001 126.968 157.366 135.873 142.345 135.873H130.652V157.101H117.16ZM130.652 124.99H140.187C148.192 124.99 152.059 120.492 152.059 113.926C152.059 107.45 148.192 103.043 140.187 103.043H130.652V124.99Z" fill="white" fill-opacity="0.05"/>
<path d="M35.8496 91.9792H52.5797L70.659 136.143H71.3785L89.4578 91.9792H106.188V157.101H93.0557V114.466H92.516L75.5161 156.831H66.5214L49.5215 114.286H48.9818V157.101H35.8496V91.9792Z" fill="white" fill-opacity="0.05"/>
<path d="M-19.3779 157.101H-33.9492L-11.3726 91.9792H5.9871L28.4738 157.101H13.9924L9.13524 142.08H-14.4308L-19.3779 157.101ZM-11.0128 131.556H5.71726L-2.46788 106.641H-2.91762L-11.0128 131.556Z" fill="white" fill-opacity="0.05"/>
<path d="M875.859 91.9792V157.101H864.166L835.563 115.725H835.023V157.101H821.531V91.9792H833.404L861.827 133.355H862.457V91.9792H875.859Z" fill="white" fill-opacity="0.05"/>
<path d="M797.336 112.937C795.537 106.82 790.59 103.042 783.484 103.042C773.41 103.042 766.574 110.778 766.574 124.45C766.574 138.212 773.23 146.037 783.574 146.037C792.884 146.037 798.415 140.775 798.595 132.545H784.474V122.381H811.638V130.476C811.638 147.566 799.945 158 783.484 158C765.225 158 752.812 145.227 752.812 124.63C752.812 103.492 766.035 91.0796 783.214 91.0796C797.876 91.0796 809.209 100.074 811.008 112.937H797.336Z" fill="white" fill-opacity="0.05"/>
<path d="M743.099 91.9792V157.101H729.607V91.9792H743.099Z" fill="white" fill-opacity="0.05"/>
<path d="M674.378 157.101H659.807L682.383 91.9792H699.743L722.23 157.101H707.748L702.891 142.08H679.325L674.378 157.101ZM682.743 131.556H699.473L691.288 106.641H690.838L682.743 131.556Z" fill="white" fill-opacity="0.05"/>
<path d="M613.664 157.101V91.9792H639.209C654.05 91.9792 662.505 101.064 662.505 113.926C662.505 126.968 653.87 135.873 638.849 135.873H627.156V157.101H613.664ZM627.156 124.99H636.69C644.696 124.99 648.563 120.492 648.563 113.926C648.563 107.45 644.696 103.043 636.69 103.043H627.156V124.99Z" fill="white" fill-opacity="0.05"/>
<path d="M532.352 91.9792H549.082L567.161 136.143H567.88L585.96 91.9792H602.69V157.101H589.558V114.466H589.018L572.018 156.831H563.023L546.023 114.286H545.484V157.101H532.352V91.9792Z" fill="white" fill-opacity="0.05"/>
<path d="M477.126 157.101H462.555L485.131 91.9792H502.491L524.978 157.101H510.496L505.639 142.08H482.073L477.126 157.101ZM485.491 131.556H502.221L494.036 106.641H493.586L485.491 131.556Z" fill="white" fill-opacity="0.05"/>
<path d="M444.297 114.646C443.218 107.45 437.641 103.042 430.086 103.042C419.922 103.042 413.266 110.868 413.266 124.54C413.266 138.571 420.012 146.037 429.996 146.037C437.461 146.037 442.948 141.899 444.297 134.884L457.969 134.974C456.44 147.026 446.366 158 429.816 158C412.366 158 399.504 145.767 399.504 124.54C399.504 103.312 412.636 91.0796 429.816 91.0796C444.837 91.0796 456.17 99.7145 457.969 114.646H444.297Z" fill="white" fill-opacity="0.05"/>
<path d="M1372.36 91.9792V157.101H1360.67L1332.07 115.725H1331.53V157.101H1318.04V91.9792H1329.91L1358.33 133.355H1358.96V91.9792H1372.36Z" fill="white" fill-opacity="0.05"/>
<path d="M1293.84 112.937C1292.04 106.82 1287.1 103.042 1279.99 103.042C1269.92 103.042 1263.08 110.778 1263.08 124.45C1263.08 138.212 1269.74 146.037 1280.08 146.037C1289.39 146.037 1294.92 140.775 1295.1 132.545H1280.98V122.381H1308.14V130.476C1308.14 147.566 1296.45 158 1279.99 158C1261.73 158 1249.32 145.227 1249.32 124.63C1249.32 103.492 1262.54 91.0796 1279.72 91.0796C1294.38 91.0796 1305.71 100.074 1307.51 112.937H1293.84Z" fill="white" fill-opacity="0.05"/>
<path d="M1239.6 91.9792V157.101H1226.11V91.9792H1239.6Z" fill="white" fill-opacity="0.05"/>
<path d="M1170.88 157.101H1156.31L1178.89 91.9792H1196.25L1218.73 157.101H1204.25L1199.4 142.08H1175.83L1170.88 157.101ZM1179.25 131.556H1195.98L1187.79 106.641H1187.34L1179.25 131.556Z" fill="white" fill-opacity="0.05"/>
<path d="M1110.17 157.101V91.9792H1135.71C1150.55 91.9792 1159.01 101.064 1159.01 113.926C1159.01 126.968 1150.37 135.873 1135.35 135.873H1123.66V157.101H1110.17ZM1123.66 124.99H1133.19C1141.2 124.99 1145.07 120.492 1145.07 113.926C1145.07 107.45 1141.2 103.043 1133.19 103.043H1123.66V124.99Z" fill="white" fill-opacity="0.05"/>
<path d="M1028.86 91.9792H1045.59L1063.67 136.143H1064.39L1082.47 91.9792H1099.2V157.101H1086.06V114.466H1085.52L1068.52 156.831H1059.53L1042.53 114.286H1041.99V157.101H1028.86V91.9792Z" fill="white" fill-opacity="0.05"/>
<path d="M973.63 157.101H959.059L981.635 91.9792H998.995L1021.48 157.101H1007L1002.14 142.08H978.577L973.63 157.101ZM981.995 131.556H998.725L990.54 106.641H990.09L981.995 131.556Z" fill="white" fill-opacity="0.05"/>
<path d="M940.801 114.646C939.722 107.45 934.145 103.042 926.59 103.042C916.426 103.042 909.77 110.868 909.77 124.54C909.77 138.571 916.516 146.037 926.5 146.037C933.965 146.037 939.452 141.899 940.801 134.884L954.473 134.974C952.944 147.026 942.87 158 926.32 158C908.87 158 896.008 145.767 896.008 124.54C896.008 103.312 909.14 91.0796 926.32 91.0796C941.341 91.0796 952.674 99.7145 954.473 114.646H940.801Z" fill="white" fill-opacity="0.05"/>
<path d="M1868.87 91.9792V157.101H1857.17L1828.57 115.725H1828.03V157.101H1814.54V91.9792H1826.41L1854.84 133.355H1855.46V91.9792H1868.87Z" fill="white" fill-opacity="0.05"/>
<path d="M1790.35 112.937C1788.55 106.82 1783.6 103.042 1776.49 103.042C1766.42 103.042 1759.58 110.778 1759.58 124.45C1759.58 138.212 1766.24 146.037 1776.58 146.037C1785.89 146.037 1791.43 140.775 1791.61 132.545H1777.48V122.381H1804.65V130.476C1804.65 147.566 1792.95 158 1776.49 158C1758.23 158 1745.82 145.227 1745.82 124.63C1745.82 103.492 1759.04 91.0796 1776.22 91.0796C1790.89 91.0796 1802.22 100.074 1804.02 112.937H1790.35Z" fill="white" fill-opacity="0.05"/>
<path d="M1736.11 91.9792V157.101H1722.62V91.9792H1736.11Z" fill="white" fill-opacity="0.05"/>
<path d="M1667.39 157.101H1652.81L1675.39 91.9792H1692.75L1715.24 157.101H1700.76L1695.9 142.08H1672.33L1667.39 157.101ZM1675.75 131.556H1692.48L1684.3 106.641H1683.85L1675.75 131.556Z" fill="white" fill-opacity="0.05"/>
<path d="M1606.67 157.101V91.9792H1632.22C1647.06 91.9792 1655.51 101.064 1655.51 113.926C1655.51 126.968 1646.88 135.873 1631.86 135.873H1620.16V157.101H1606.67ZM1620.16 124.99H1629.7C1637.7 124.99 1641.57 120.492 1641.57 113.926C1641.57 107.45 1637.7 103.043 1629.7 103.043H1620.16V124.99Z" fill="white" fill-opacity="0.05"/>
<path d="M1525.36 91.9792H1542.09L1560.17 136.143H1560.89L1578.97 91.9792H1595.7V157.101H1582.57V114.466H1582.03L1565.03 156.831H1556.03L1539.03 114.286H1538.49V157.101H1525.36V91.9792Z" fill="white" fill-opacity="0.05"/>
<path d="M1470.13 157.101H1455.56L1478.14 91.9792H1495.5L1517.99 157.101H1503.5L1498.65 142.08H1475.08L1470.13 157.101ZM1478.5 131.556H1495.23L1487.04 106.641H1486.59L1478.5 131.556Z" fill="white" fill-opacity="0.05"/>
<path d="M1437.31 114.646C1436.23 107.45 1430.65 103.042 1423.09 103.042C1412.93 103.042 1406.27 110.868 1406.27 124.54C1406.27 138.571 1413.02 146.037 1423 146.037C1430.47 146.037 1435.96 141.899 1437.31 134.884L1450.98 134.974C1449.45 147.026 1439.37 158 1422.82 158C1405.37 158 1392.51 145.767 1392.51 124.54C1392.51 103.312 1405.64 91.0796 1422.82 91.0796C1437.84 91.0796 1449.18 99.7145 1450.98 114.646H1437.31Z" fill="white" fill-opacity="0.05"/>
<path d="M582.955 0.899658V66.021H571.262L542.659 24.6456H542.119V66.021H528.627V0.899658H540.5L568.923 42.2751H569.553V0.899658H582.955Z" fill="white" fill-opacity="0.05"/>
<path d="M504.434 21.857C502.635 15.7407 497.688 11.9629 490.582 11.9629C480.508 11.9629 473.672 19.6983 473.672 33.3702C473.672 47.1321 480.328 54.9574 490.672 54.9574C499.981 54.9574 505.513 49.6955 505.693 41.4654H491.571V31.3014H518.735V39.3966C518.735 56.4865 507.042 66.9203 490.582 66.9203C472.323 66.9203 459.91 54.1479 459.91 33.5501C459.91 12.4126 473.132 0 490.312 0C504.973 0 516.307 8.99467 518.106 21.857H504.434Z" fill="white" fill-opacity="0.05"/>
<path d="M450.195 0.899658V66.021H436.703V0.899658H450.195Z" fill="white" fill-opacity="0.05"/>
<path d="M381.474 66.021H366.902L389.479 0.899658H406.839L429.325 66.021H414.844L409.987 50.9999H386.421L381.474 66.021ZM389.839 40.4762H406.569L398.384 15.561H397.934L389.839 40.4762Z" fill="white" fill-opacity="0.05"/>
<path d="M320.76 66.021V0.899658H346.305C361.146 0.899658 369.601 9.98427 369.601 22.8466C369.601 35.8889 360.966 44.7936 345.945 44.7936H334.252V66.021H320.76ZM334.252 33.9101H343.786C351.791 33.9101 355.659 29.4127 355.659 22.8466C355.659 16.3705 351.791 11.9631 343.786 11.9631H334.252V33.9101Z" fill="white" fill-opacity="0.05"/>
<path d="M239.449 0.899658H256.179L274.259 45.0635H274.978L293.057 0.899658H309.788V66.021H296.655V23.3863H296.116L279.116 65.7512H270.121L253.121 23.2064H252.581V66.021H239.449V0.899658Z" fill="white" fill-opacity="0.05"/>
<path d="M184.222 66.021H169.65L192.227 0.899658H209.587L232.073 66.021H217.592L212.735 50.9999H189.169L184.222 66.021ZM192.587 40.4762H209.317L201.132 15.561H200.682L192.587 40.4762Z" fill="white" fill-opacity="0.05"/>
<path d="M151.393 23.566C150.314 16.3703 144.737 11.9629 137.181 11.9629C127.018 11.9629 120.361 19.7883 120.361 33.4602C120.361 47.4918 127.107 54.9574 137.092 54.9574C144.557 54.9574 150.044 50.8199 151.393 43.804L165.065 43.894C163.536 55.9468 153.462 66.9203 136.912 66.9203C119.462 66.9203 106.6 54.6876 106.6 33.4602C106.6 12.2327 119.732 0 136.912 0C151.933 0 163.266 8.63488 165.065 23.566H151.393Z" fill="white" fill-opacity="0.05"/>
<path d="M1079.46 0.899658V66.021H1067.77L1039.16 24.6456H1038.62V66.021H1025.13V0.899658H1037L1065.43 42.2751H1066.06V0.899658H1079.46Z" fill="white" fill-opacity="0.05"/>
<path d="M1000.94 21.857C999.139 15.7407 994.192 11.9629 987.086 11.9629C977.012 11.9629 970.176 19.6983 970.176 33.3702C970.176 47.1321 976.832 54.9574 987.176 54.9574C996.485 54.9574 1002.02 49.6955 1002.2 41.4654H988.075V31.3014H1015.24V39.3966C1015.24 56.4865 1003.55 66.9203 987.086 66.9203C968.827 66.9203 956.414 54.1479 956.414 33.5501C956.414 12.4126 969.636 0 986.816 0C1001.48 0 1012.81 8.99467 1014.61 21.857H1000.94Z" fill="white" fill-opacity="0.05"/>
<path d="M946.699 0.899658V66.021H933.207V0.899658H946.699Z" fill="white" fill-opacity="0.05"/>
<path d="M877.978 66.021H863.406L885.983 0.899658H903.343L925.829 66.021H911.348L906.491 50.9999H882.925L877.978 66.021ZM886.343 40.4762H903.073L894.888 15.561H894.438L886.343 40.4762Z" fill="white" fill-opacity="0.05"/>
<path d="M817.266 66.021V0.899658H842.81C857.652 0.899658 866.107 9.98427 866.107 22.8466C866.107 35.8889 857.472 44.7936 842.451 44.7936H830.758V66.021H817.266ZM830.758 33.9101H840.292C848.297 33.9101 852.165 29.4127 852.165 22.8466C852.165 16.3705 848.297 11.9631 840.292 11.9631H830.758V33.9101Z" fill="white" fill-opacity="0.05"/>
<path d="M735.953 0.899658H752.683L770.762 45.0635H771.482L789.561 0.899658H806.291V66.021H793.159V23.3863H792.62L775.62 65.7512H766.625L749.625 23.2064H749.085V66.021H735.953V0.899658Z" fill="white" fill-opacity="0.05"/>
<path d="M680.726 66.021H666.154L688.731 0.899658H706.091L728.577 66.021H714.096L709.239 50.9999H685.673L680.726 66.021ZM689.091 40.4762H705.821L697.636 15.561H697.186L689.091 40.4762Z" fill="white" fill-opacity="0.05"/>
<path d="M647.897 23.566C646.818 16.3703 641.241 11.9629 633.685 11.9629C623.521 11.9629 616.865 19.7883 616.865 33.4602C616.865 47.4918 623.611 54.9574 633.595 54.9574C641.061 54.9574 646.548 50.8199 647.897 43.804L661.569 43.894C660.04 55.9468 649.966 66.9203 633.416 66.9203C615.966 66.9203 603.104 54.6876 603.104 33.4602C603.104 12.2327 616.236 0 633.416 0C648.437 0 659.77 8.63488 661.569 23.566H647.897Z" fill="white" fill-opacity="0.05"/>
<path d="M1575.96 0.899658V66.021H1564.27L1535.67 24.6456H1535.13V66.021H1521.63V0.899658H1533.51L1561.93 42.2751H1562.56V0.899658H1575.96Z" fill="white" fill-opacity="0.05"/>
<path d="M1497.44 21.857C1495.64 15.7407 1490.69 11.9629 1483.59 11.9629C1473.51 11.9629 1466.68 19.6983 1466.68 33.3702C1466.68 47.1321 1473.33 54.9574 1483.68 54.9574C1492.99 54.9574 1498.52 49.6955 1498.7 41.4654H1484.58V31.3014H1511.74V39.3966C1511.74 56.4865 1500.05 66.9203 1483.59 66.9203C1465.33 66.9203 1452.92 54.1479 1452.92 33.5501C1452.92 12.4126 1466.14 0 1483.32 0C1497.98 0 1509.31 8.99467 1511.11 21.857H1497.44Z" fill="white" fill-opacity="0.05"/>
<path d="M1443.2 0.899658V66.021H1429.71V0.899658H1443.2Z" fill="white" fill-opacity="0.05"/>
<path d="M1374.48 66.021H1359.91L1382.49 0.899658H1399.85L1422.33 66.021H1407.85L1402.99 50.9999H1379.43L1374.48 66.021ZM1382.85 40.4762H1399.58L1391.39 15.561H1390.94L1382.85 40.4762Z" fill="white" fill-opacity="0.05"/>
<path d="M1313.77 66.021V0.899658H1339.31C1354.15 0.899658 1362.61 9.98427 1362.61 22.8466C1362.61 35.8889 1353.97 44.7936 1338.95 44.7936H1327.26V66.021H1313.77ZM1327.26 33.9101H1336.79C1344.8 33.9101 1348.66 29.4127 1348.66 22.8466C1348.66 16.3705 1344.8 11.9631 1336.79 11.9631H1327.26V33.9101Z" fill="white" fill-opacity="0.05"/>
<path d="M1232.46 0.899658H1249.19L1267.26 45.0635H1267.98L1286.06 0.899658H1302.79V66.021H1289.66V23.3863H1289.12L1272.12 65.7512H1263.13L1246.13 23.2064H1245.59V66.021H1232.46V0.899658Z" fill="white" fill-opacity="0.05"/>
<path d="M1177.23 66.021H1162.66L1185.23 0.899658H1202.59L1225.08 66.021H1210.6L1205.74 50.9999H1182.17L1177.23 66.021ZM1185.59 40.4762H1202.32L1194.14 15.561H1193.69L1185.59 40.4762Z" fill="white" fill-opacity="0.05"/>
<path d="M1144.4 23.566C1143.32 16.3703 1137.74 11.9629 1130.19 11.9629C1120.02 11.9629 1113.37 19.7883 1113.37 33.4602C1113.37 47.4918 1120.11 54.9574 1130.1 54.9574C1137.56 54.9574 1143.05 50.8199 1144.4 43.804L1158.07 43.894C1156.54 55.9468 1146.47 66.9203 1129.92 66.9203C1112.47 66.9203 1099.61 54.6876 1099.61 33.4602C1099.61 12.2327 1112.74 0 1129.92 0C1144.94 0 1156.27 8.63488 1158.07 23.566H1144.4Z" fill="white" fill-opacity="0.05"/>
<path d="M1870.99 66.021H1856.41L1878.99 0.899658H1896.35L1918.84 66.021H1904.36L1899.5 50.9999H1875.93L1870.99 66.021ZM1879.35 40.4762H1896.08L1887.9 15.561H1887.45L1879.35 40.4762Z" fill="white" fill-opacity="0.05"/>
<path d="M1810.27 66.021V0.899658H1835.82C1850.66 0.899658 1859.11 9.98427 1859.11 22.8466C1859.11 35.8889 1850.48 44.7936 1835.46 44.7936H1823.76V66.021H1810.27ZM1823.76 33.9101H1833.3C1841.3 33.9101 1845.17 29.4127 1845.17 22.8466C1845.17 16.3705 1841.3 11.9631 1833.3 11.9631H1823.76V33.9101Z" fill="white" fill-opacity="0.05"/>
<path d="M1728.96 0.899658H1745.69L1763.77 45.0635H1764.49L1782.57 0.899658H1799.3V66.021H1786.17V23.3863H1785.63L1768.63 65.7512H1759.63L1742.63 23.2064H1742.09V66.021H1728.96V0.899658Z" fill="white" fill-opacity="0.05"/>
<path d="M1673.73 66.021H1659.16L1681.74 0.899658H1699.1L1721.59 66.021H1707.1L1702.25 50.9999H1678.68L1673.73 66.021ZM1682.1 40.4762H1698.83L1690.64 15.561H1690.19L1682.1 40.4762Z" fill="white" fill-opacity="0.05"/>
<path d="M1640.9 23.566C1639.83 16.3703 1634.25 11.9629 1626.69 11.9629C1616.53 11.9629 1609.87 19.7883 1609.87 33.4602C1609.87 47.4918 1616.62 54.9574 1626.6 54.9574C1634.07 54.9574 1639.56 50.8199 1640.9 43.804L1654.58 43.894C1653.05 55.9468 1642.97 66.9203 1626.42 66.9203C1608.97 66.9203 1596.11 54.6876 1596.11 33.4602C1596.11 12.2327 1609.24 0 1626.42 0C1641.44 0 1652.78 8.63488 1654.58 23.566H1640.9Z" fill="white" fill-opacity="0.05"/>
<path d="M84.3551 0.899658V66.021H72.6621L44.059 24.6456H43.5193V66.021H30.0273V0.899658H41.9003L70.3234 42.2751H70.9531V0.899658H84.3551Z" fill="white" fill-opacity="0.05"/>
<path d="M5.83415 21.857C4.03521 15.7407 -0.911852 11.9629 -8.01764 11.9629C-18.0917 11.9629 -24.9276 19.6983 -24.9276 33.3702C-24.9276 47.1321 -18.2716 54.9574 -7.92769 54.9574C1.38179 54.9574 6.91351 49.6955 7.0934 41.4654H-7.02823V31.3014H20.1357V39.3966C20.1357 56.4865 8.4426 66.9203 -8.01764 66.9203C-26.2768 66.9203 -38.6895 54.1479 -38.6895 33.5501C-38.6895 12.4126 -25.4673 0 -8.28748 0C6.37383 0 17.7071 8.99467 19.506 21.857H5.83415Z" fill="white" fill-opacity="0.05"/>
</svg>
