<svg width="360" height="97" viewBox="0 0 360 97" fill="none" xmlns="http://www.w3.org/2000/svg">
<path d="M54.5602 56.4679V96.4475H47.3815L29.8214 71.0461H29.4901V96.4475H21.207V56.4679H28.4961L45.9458 81.8693H46.3324V56.4679H54.5602Z" fill="white" fill-opacity="0.05"/>
<path d="M6.35368 69.3344C5.24927 65.5794 2.21214 63.2601 -2.15028 63.2601C-8.33497 63.2601 -12.5317 68.0091 -12.5317 76.4026C-12.5317 84.8513 -8.44542 89.6555 -2.09506 89.6555C3.62026 89.6555 7.01632 86.4251 7.12677 81.3724H-1.54285V75.1325H15.1337V80.1024C15.1337 90.5942 7.95507 96.9998 -2.15028 96.9998C-13.36 96.9998 -20.9805 89.1585 -20.9805 76.513C-20.9805 63.5362 -12.8631 55.9158 -2.31594 55.9158C6.685 55.9158 13.6428 61.4378 14.7472 69.3344H6.35368Z" fill="white" fill-opacity="0.05"/>
<path d="M359.377 56.4679V96.4475H352.198L334.638 71.0461H334.307V96.4475H326.023V56.4679H333.313L350.762 81.8693H351.149V56.4679H359.377Z" fill="white" fill-opacity="0.05"/>
<path d="M311.172 69.3344C310.068 65.5794 307.031 63.2601 302.668 63.2601C296.483 63.2601 292.287 68.0091 292.287 76.4026C292.287 84.8513 296.373 89.6555 302.723 89.6555C308.439 89.6555 311.835 86.4251 311.945 81.3724H303.276V75.1325H319.952V80.1024C319.952 90.5942 312.773 96.9998 302.668 96.9998C291.458 96.9998 283.838 89.1585 283.838 76.513C283.838 63.5362 291.955 55.9158 302.502 55.9158C311.503 55.9158 318.461 61.4378 319.566 69.3344H311.172Z" fill="white" fill-opacity="0.05"/>
<path d="M277.871 56.4679V96.4475H269.588V56.4679H277.871Z" fill="white" fill-opacity="0.05"/>
<path d="M235.684 96.4475H226.738L240.599 56.4679H251.256L265.061 96.4475H256.171L253.189 87.2257H238.721L235.684 96.4475ZM240.82 80.7649H251.091L246.065 65.4688H245.789L240.82 80.7649Z" fill="white" fill-opacity="0.05"/>
<path d="M198.408 96.4475V56.4679H214.091C223.202 56.4679 228.393 62.0452 228.393 69.9417C228.393 77.9487 223.092 83.4155 213.87 83.4155H206.691V96.4475H198.408ZM206.691 76.7338H212.545C217.459 76.7338 219.834 73.9728 219.834 69.9417C219.834 65.9658 217.459 63.26 212.545 63.26H206.691V76.7338Z" fill="white" fill-opacity="0.05"/>
<path d="M148.486 56.4679H158.757L169.857 83.5812H170.298L181.398 56.4679H191.669V96.4475H183.607V70.273H183.275L172.839 96.2819H167.317L156.88 70.1626H156.549V96.4475H148.486V56.4679Z" fill="white" fill-opacity="0.05"/>
<path d="M114.582 96.4475H105.637L119.497 56.4679H130.155L143.96 96.4475H135.069L132.087 87.2257H117.62L114.582 96.4475ZM119.718 80.7649H129.989L124.964 65.4688H124.688L119.718 80.7649Z" fill="white" fill-opacity="0.05"/>
<path d="M94.4295 70.3835C93.7669 65.9659 90.3432 63.2601 85.7047 63.2601C79.4647 63.2601 75.3784 68.0643 75.3784 76.4578C75.3784 85.0722 79.52 89.6555 85.6494 89.6555C90.2327 89.6555 93.6012 87.1154 94.4295 82.8082L102.823 82.8634C101.884 90.2629 95.6996 96.9998 85.539 96.9998C74.8262 96.9998 66.9297 89.4898 66.9297 76.4578C66.9297 63.4258 74.9919 55.9158 85.539 55.9158C94.7608 55.9158 101.719 61.2169 102.823 70.3835H94.4295Z" fill="white" fill-opacity="0.05"/>
<path d="M179.548 0.552124V40.5318H172.37L154.81 15.1303H154.478V40.5318H146.195V0.552124H153.484L170.934 25.9536H171.321V0.552124H179.548Z" fill="white" fill-opacity="0.05"/>
<path d="M131.344 13.4186C130.24 9.66359 127.202 7.34433 122.84 7.34433C116.655 7.34433 112.459 12.0933 112.459 20.4868C112.459 28.9355 116.545 33.7397 122.895 33.7397C128.61 33.7397 132.007 30.5093 132.117 25.4567H123.447V19.2167H140.124V24.1866C140.124 34.6785 132.945 41.0841 122.84 41.0841C111.63 41.0841 104.01 33.2427 104.01 20.5972C104.01 7.62043 112.127 0 122.674 0C131.675 0 138.633 5.52205 139.737 13.4186H131.344Z" fill="white" fill-opacity="0.05"/>
<path d="M98.0428 0.552124V40.5318H89.7598V0.552124H98.0428Z" fill="white" fill-opacity="0.05"/>
<path d="M55.8559 40.5318H46.9102L60.7705 0.552124H71.4281L85.2332 40.5318H76.3427L73.3608 31.3099H58.893L55.8559 40.5318ZM60.9914 24.8491H71.2624L66.2373 9.55307H65.9612L60.9914 24.8491Z" fill="white" fill-opacity="0.05"/>
<path d="M18.5801 40.5318V0.552124H34.2627C43.3741 0.552124 48.5648 6.12939 48.5648 14.0259C48.5648 22.0329 43.2636 27.4997 34.0418 27.4997H26.8632V40.5318H18.5801ZM26.8632 20.818H32.7165C37.6312 20.818 40.0056 18.057 40.0056 14.0259C40.0056 10.0501 37.6312 7.34425 32.7165 7.34425H26.8632V20.818Z" fill="white" fill-opacity="0.05"/>
<path d="M-31.3418 0.552124H-21.0708L-9.97146 27.6654H-9.5297L1.56962 0.552124H11.8406V40.5318H3.77844V14.3573H3.44712L-6.98956 40.3661H-12.5116L-22.9483 14.2468H-23.2796V40.5318H-31.3418V0.552124Z" fill="white" fill-opacity="0.05"/>
<path d="M360.676 40.5318H351.73L365.591 0.552124H376.248L390.053 40.5318H381.163L378.181 31.3099H363.713L360.676 40.5318ZM365.812 24.8491H376.083L371.058 9.55307H370.782L365.812 24.8491Z" fill="white" fill-opacity="0.05"/>
<path d="M323.402 40.5318V0.552124H339.085C348.196 0.552124 353.387 6.12939 353.387 14.0259C353.387 22.0329 348.086 27.4997 338.864 27.4997H331.685V40.5318H323.402ZM331.685 20.818H337.539C342.453 20.818 344.828 18.057 344.828 14.0259C344.828 10.0501 342.453 7.34425 337.539 7.34425H331.685V20.818Z" fill="white" fill-opacity="0.05"/>
<path d="M273.48 0.552124H283.751L294.851 27.6654H295.293L306.392 0.552124H316.663V40.5318H308.601V14.3573H308.269L297.833 40.3661H292.311L281.874 14.2468H281.543V40.5318H273.48V0.552124Z" fill="white" fill-opacity="0.05"/>
<path d="M239.577 40.5318H230.631L244.491 0.552124H255.149L268.954 40.5318H260.063L257.081 31.3099H242.614L239.577 40.5318ZM244.712 24.8491H254.983L249.958 9.55307H249.682L244.712 24.8491Z" fill="white" fill-opacity="0.05"/>
<path d="M219.422 14.4678C218.759 10.0501 215.335 7.34433 210.697 7.34433C204.457 7.34433 200.371 12.1485 200.371 20.542C200.371 29.1564 204.512 33.7397 210.642 33.7397C215.225 33.7397 218.593 31.1996 219.422 26.8924L227.815 26.9476C226.876 34.3472 220.692 41.0841 210.531 41.0841C199.818 41.0841 191.922 33.5741 191.922 20.542C191.922 7.50999 199.984 0 210.531 0C219.753 0 226.711 5.30117 227.815 14.4678H219.422Z" fill="white" fill-opacity="0.05"/>
</svg>
