<svg xmlns="http://www.w3.org/2000/svg" viewBox="0 0 296.29 296.29"><defs><style>.cls-1{fill:none;stroke:#e5c299;stroke-miterlimit:10;}</style></defs><g id="Layer_2" data-name="Layer 2"><g id="Layer_2-2" data-name="Layer 2"><path class="cls-1" d="M142.78,4.8l17.05,21.91a11.14,11.14,0,0,0,15,2.4l23-15.51a11.16,11.16,0,0,1,17.28,7.72L219,48.82a11.16,11.16,0,0,0,11.82,9.6l27.7-1.92a11.15,11.15,0,0,1,11.1,15.32L259.15,97.55a11.15,11.15,0,0,0,5.44,14.21l25,12.19a11.16,11.16,0,0,1,1.95,18.83l-21.91,17.05a11.16,11.16,0,0,0-2.4,15l15.51,23A11.16,11.16,0,0,1,275,215.17L247.47,219a11.15,11.15,0,0,0-9.59,11.82l1.91,27.7a11.15,11.15,0,0,1-15.32,11.1l-25.72-10.45a11.16,11.16,0,0,0-14.22,5.44l-12.19,25a11.15,11.15,0,0,1-18.82,1.95l-17.06-21.91a11.16,11.16,0,0,0-15-2.4l-23,15.51A11.15,11.15,0,0,1,81.13,275l-3.82-27.5a11.15,11.15,0,0,0-11.82-9.59L37.8,239.79a11.16,11.16,0,0,1-11.11-15.32l10.45-25.72a11.16,11.16,0,0,0-5.44-14.22L6.76,172.34a11.15,11.15,0,0,1-2-18.82l21.91-17.06a11.14,11.14,0,0,0,2.4-15L13.6,98.4a11.15,11.15,0,0,1,7.72-17.27l27.5-3.82a11.16,11.16,0,0,0,9.6-11.82L56.5,37.8A11.16,11.16,0,0,1,71.82,26.69L97.55,37.14a11.15,11.15,0,0,0,14.21-5.44L124,6.76A11.16,11.16,0,0,1,142.78,4.8Z"/></g></g></svg>