<svg xmlns="http://www.w3.org/2000/svg" viewBox="0 0 385.91 554.52"><defs><style>.cls-1{fill:none;stroke:#8e9094;stroke-miterlimit:10;}</style></defs><g id="Layer_2" data-name="Layer 2"><g id="Layer_2-2" data-name="Layer 2"><path class="cls-1" d="M340.35,60.54,306.48,9.62A20.44,20.44,0,0,0,273.32,8.4L235.8,56.69a20.42,20.42,0,0,1-24.33,6.18l-56-24.52a20.45,20.45,0,0,0-28.55,16.9l-5.46,60.92a20.44,20.44,0,0,1-17.12,18.35l-60.4,9.67A20.44,20.44,0,0,0,29,173.84L57.38,228a20.44,20.44,0,0,1-4.49,24.7L7.31,293.51a20.44,20.44,0,0,0,3.51,33L64,356.77A20.45,20.45,0,0,1,73.55,380l-16.3,58.95A20.43,20.43,0,0,0,78,464.77l61.07-3.26a20.44,20.44,0,0,1,20.61,14.34l18.16,58.4a20.43,20.43,0,0,0,31.46,10.51L259,509a20.44,20.44,0,0,1,25.09.92l46.85,39.32A20.44,20.44,0,0,0,363,541.06l22.4-56.91"/></g></g></svg>