<svg xmlns="http://www.w3.org/2000/svg" viewBox="0 0 349.62 517.81"><defs><style>.cls-1{fill:none;stroke:#dadbdc;stroke-miterlimit:10;stroke-width:3px;}</style></defs><g id="Layer_2" data-name="Layer 2"><g id="Layer_2-2" data-name="Layer 2"><path class="cls-1" d="M349.5,185.77c-78,0-137.52,64.8-137.52,145.57V517.81"/><path class="cls-1" d="M349.5,166c-90.86,0-156,68.09-156,155.66v196.2"/><path class="cls-1" d="M349.5,142.62C242,151,175,226.44,171.35,310.35V517.81"/><path class="cls-1" d="M349.5,123.47C232.65,123,149.25,220.29,149.25,317.08V517.81"/><path class="cls-1" d="M349.5,101.8C212,101.8,129.15,221.56,129.15,318V517.81"/><path class="cls-1" d="M349.5,80.41C182,87.54,107.34,228.88,107.34,318V517.81"/><path class="cls-1" d="M349.5,59.74c-192.56,5-263,169.14-263,258.25V517.81"/><path class="cls-1" d="M349.5,37.64C132.85,49,64.84,228.88,64.84,319.62V517.81"/><path class="cls-1" d="M349.5,16C104.34,31.93,43,228.88,43,318V517.81"/><path class="cls-1" d="M296.81,1.48C83,37.64,22.22,228.88,22.22,318V517.81"/><path class="cls-1" d="M218,1.48C53,66.87,1.5,228.88,1.5,318V517.81"/></g></g></svg>