<svg xmlns="http://www.w3.org/2000/svg" viewBox="0 0 349.62 545.43"><defs><style>.cls-1{fill:none;stroke:#dadbdc;stroke-miterlimit:10;stroke-width:3px;}</style></defs><g id="Layer_2" data-name="Layer 2"><g id="Layer_2-2" data-name="Layer 2"><path class="cls-1" d="M.12,332c78,0,137.52-64.8,137.52-145.57V0"/><path class="cls-1" d="M.12,351.86c90.86,0,156-68.09,156-155.66V0"/><path class="cls-1" d="M.12,375.19c107.53-8.36,174.5-83.82,178.15-167.72V0"/><path class="cls-1" d="M.12,394.35c116.84.49,200.25-96.82,200.25-193.62V0"/><path class="cls-1" d="M.12,416c137.52,0,220.35-119.77,220.35-216.2V0"/><path class="cls-1" d="M.12,437.4c167.46-7.13,242.16-148.47,242.16-237.58V0"/><path class="cls-1" d="M.12,458.08c192.55-5,263-169.15,263-258.26V0"/><path class="cls-1" d="M.12,480.18c216.64-11.41,284.65-191.25,284.65-282V0"/><path class="cls-1" d="M.12,501.82c245.16-15.94,306.47-212.89,306.47-302V0"/><path class="cls-1" d="M3.12,524.18C273.53,493.76,327.4,288.93,327.4,199.82V0"/><path class="cls-1" d="M6.92,543.94c277.85-28.79,341.2-239.8,341.2-344.12V0"/></g></g></svg>