<svg xmlns="http://www.w3.org/2000/svg" viewBox="0 0 597.18 438.67"><defs><style>.cls-1{fill:none;stroke:#b0b2b6;stroke-miterlimit:10;}</style></defs><g id="Layer_2" data-name="Layer 2"><g id="Layer_2-2" data-name="Layer 2"><path class="cls-1" d="M372.42,0s-3.21,131.72,142.22,203.37c0,0,49.19,24.59,74.85-4.28s-25.66-77-25.66-77S506.09,67.58,427,52.61,286.07,59,286.05,59c-33,11.41-63,21.53-92.48,41.59-58.43,39.73-111.52,100.12-133,168.24-8.66,27.49-11.2,54.3-7.08,82.91,4.1,28.39,11.8,65,38,81.22,17.16,10.64,40.58,4.46,49-14.22,9.44-20.91-5.52-47.88-20.74-62.32C86.67,325,37.62,332.18.22,350.94"/></g></g></svg>