<?xml version="1.0"?>
<svg width="600" height="600" xmlns="http://www.w3.org/2000/svg" xmlns:svg="http://www.w3.org/2000/svg" xmlns:xlink="http://www.w3.org/1999/xlink">
 <defs>
  <style>.cls-1{fill:none;stroke:#8e9094;stroke-miterlimit:10;}</style>
  <symbol id="svg_4" viewBox="0 0 325.23 302.17" xmlns="http://www.w3.org/2000/svg">
   <defs>
    <style>.cls-1{fill:none;stroke:#4a7dbf;stroke-miterlimit:10;}</style>
   </defs>
   <g data-name="Layer 2" id="svg_2">
    <g data-name="Layer 2" id="svg_3">
     <path class="cls-1" d="m324.74,0.11s-20.09,91.25 -127.74,119.05c-35.57,9.18 -65.55,31.65 -77,67.45c-7.23,22.69 -9.17,49 0.13,71.43c9.54,23 34.8,44 60.47,43.63c13.63,-0.2 26,-8.7 30.18,-21.67c3.83,-11.85 1.51,-28.61 -23.08,-48.21c-49.19,-39.21 -119,-31.37 -119,-31.37s-41.38,2.86 -68.46,17.83"/>
    </g>
   </g>
  </symbol>
  <symbol id="svg_16" viewBox="0 0 86.31 86.31" xmlns="http://www.w3.org/2000/svg">
   <defs>
    <style>.cls-1{fill:#c3b64b;}</style>
   </defs>
   <g data-name="Layer 2" id="svg_14">
    <g data-name="Layer 2" id="svg_15">
     <path class="cls-1" d="m43.93,70.4l-0.81,15.91l-0.79,-15.91a27.88,27.88 0 0 0 -26.43,-26.47l-15.9,-0.81l15.9,-0.79a27.88,27.88 0 0 0 26.47,-26.43l0.81,-15.9l0.82,15.9a27.89,27.89 0 0 0 26.4,26.47l15.91,0.81l-15.91,0.82a27.89,27.89 0 0 0 -26.47,26.4z"/>
    </g>
   </g>
  </symbol>
  <symbol id="svg_25" viewBox="0 0 385.91 554.52" xmlns="http://www.w3.org/2000/svg">
   <defs>
    <style>.cls-1{fill:none;stroke:#8e9094;stroke-miterlimit:10;}</style>
   </defs>
   <g data-name="Layer 2" id="svg_23">
    <g data-name="Layer 2" id="svg_24">
     <path class="cls-1" d="m340.35,60.54l-33.87,-50.92a20.44,20.44 0 0 0 -33.16,-1.22l-37.52,48.29a20.42,20.42 0 0 1 -24.33,6.18l-56,-24.52a20.45,20.45 0 0 0 -28.55,16.9l-5.46,60.92a20.44,20.44 0 0 1 -17.12,18.35l-60.4,9.67a20.44,20.44 0 0 0 -14.94,29.65l28.38,54.16a20.44,20.44 0 0 1 -4.49,24.7l-45.58,40.81a20.44,20.44 0 0 0 3.51,33l53.18,30.26a20.45,20.45 0 0 1 9.55,23.23l-16.3,58.95a20.43,20.43 0 0 0 20.75,25.82l61.07,-3.26a20.44,20.44 0 0 1 20.61,14.34l18.16,58.4a20.43,20.43 0 0 0 31.46,10.51l49.7,-35.76a20.44,20.44 0 0 1 25.09,0.92l46.85,39.32a20.44,20.44 0 0 0 32.06,-8.18l22.4,-56.91"/>
    </g>
   </g>
  </symbol>
 </defs>
 <g class="layer">
  <title>Layer 1</title>
  <use id="svg_18" transform="matrix(0.14806 0 0 0.14806 332.299 344.699)" x="819.48" xlink:href="#svg_16" y="481.92"/>
  <use id="svg_26" transform="matrix(0.728277 0 0 0.728277 -53.2141 -5.32974)" x="215.04" xlink:href="#svg_25" y="22.97"/>
  <use id="svg_27" transform="matrix(0.442127 0 0 0.442127 14.5 131.447)" x="5.28" xlink:href="#svg_4" y="475.07"/>
 </g>
</svg>