<svg xmlns="http://www.w3.org/2000/svg" viewBox="0 0 477.54 561.84"><defs><style>.cls-1{fill:none;stroke:#e5c299;}.cls-1,.cls-2{stroke-miterlimit:10;}.cls-2{fill:#f7baba;stroke:#f7baba;}.cls-3{fill:#d9dad9;}</style></defs><g id="Layer_2" data-name="Layer 2"><g id="Layer_2-2" data-name="Layer 2"><path class="cls-1" d="M142.78,270.35l17.05,21.91a11.16,11.16,0,0,0,15,2.4l23-15.51a11.16,11.16,0,0,1,17.28,7.72l3.81,27.5A11.15,11.15,0,0,0,230.8,324l27.7-1.91a11.15,11.15,0,0,1,11.1,15.32l-10.45,25.72a11.16,11.16,0,0,0,5.44,14.22l25,12.19a11.15,11.15,0,0,1,1.95,18.82l-21.91,17.06a11.16,11.16,0,0,0-2.4,15l15.51,23A11.15,11.15,0,0,1,275,480.71l-27.5,3.82a11.14,11.14,0,0,0-9.59,11.82L239.79,524a11.16,11.16,0,0,1-15.32,11.11L198.75,524.7a11.16,11.16,0,0,0-14.22,5.44l-12.19,24.94a11.16,11.16,0,0,1-18.82,2l-17.06-21.91a11.14,11.14,0,0,0-15-2.4l-23,15.51a11.15,11.15,0,0,1-17.27-7.72L77.31,513a11.16,11.16,0,0,0-11.82-9.6L37.8,505.34A11.16,11.16,0,0,1,26.69,490l10.45-25.73a11.15,11.15,0,0,0-5.44-14.21L6.76,437.89a11.16,11.16,0,0,1-2-18.83L26.71,402a11.14,11.14,0,0,0,2.4-15L13.6,364a11.16,11.16,0,0,1,7.72-17.28l27.5-3.81A11.16,11.16,0,0,0,58.42,331l-1.92-27.7a11.15,11.15,0,0,1,15.32-11.1l25.73,10.45a11.15,11.15,0,0,0,14.21-5.44L124,272.3A11.16,11.16,0,0,1,142.78,270.35Z"/><circle class="cls-2" cx="350.15" cy="127.39" r="126.89"/><circle class="cls-3" cx="410.47" cy="300.71" r="34.66"/></g></g></svg>