<svg xmlns="http://www.w3.org/2000/svg" viewBox="0 0 634.17 608.5"><defs><style>.cls-1,.cls-2,.cls-3{fill:none;stroke-miterlimit:10;}.cls-1,.cls-2{stroke:#8e9094;}.cls-1{stroke-width:0.89px;}.cls-2{stroke-width:0.54px;}.cls-3{stroke:#b0b2b6;}</style></defs><g id="Layer_2" data-name="Layer 2"><g id="Layer_2-2" data-name="Layer 2"><line class="cls-1" x1="392.75" y1="25.74" x2="392.75" y2="448.76"/><line class="cls-1" x1="358.11" y1="364.36" x2="428.16" y2="434.42"/><line class="cls-1" x1="343.44" y1="399.01" x2="442.51" y2="399.01"/><line class="cls-1" x1="357.86" y1="433.85" x2="427.96" y2="363.85"/><line class="cls-2" x1="266.73" x2="266.73" y2="182.48"/><line class="cls-2" x1="251.78" y1="146.07" x2="282" y2="176.29"/><line class="cls-2" x1="245.45" y1="161.01" x2="288.19" y2="161.01"/><line class="cls-2" x1="251.67" y1="176.04" x2="281.92" y2="145.85"/><path class="cls-3" d="M448.87,608.47c-4.22-73.91,39.85-143.64,106.37-174.5,19.21-8.91,40.45-13,61.29-7.73,4.48,1.14,9.12,2.84,12,6.46,20.05,25.36-23.84,58.77-40.24,73C538.46,548.9,476.46,569.05,411,557.64c-59.69-10.41-117.24-35.06-159.85-79.12C210,436,177.6,374.17,185.82,313.64c9.53-70.31,46.38-65.69,47.05-65.6,16.86,2.27,23.37,18.55,21.57,34.21-3.11,27-26.05,45.35-51.78,50.14-50.34,9.39-82.58-34.09-103.46-73.05C63.91,193.51,0,189.23,0,189.23"/></g></g></svg>