<svg xmlns="http://www.w3.org/2000/svg" viewBox="0 0 407.66 591.66"><defs><style>.cls-1{fill:none;stroke:#e5c299;stroke-miterlimit:10;stroke-width:0.85px;}.cls-2{fill:#246ab2;}.cls-3{fill:#fddec0;}</style></defs><g id="Layer_2" data-name="Layer 2"><g id="Layer_2-2" data-name="Layer 2"><path class="cls-1" d="M189,248.06l14.52-18.64a9.48,9.48,0,0,1,12.79-2l19.6,13.19a9.49,9.49,0,0,0,14.7-6.57l3.25-23.4a9.48,9.48,0,0,1,10.05-8.16l23.58,1.63A9.49,9.49,0,0,0,297,191l-8.89-21.89A9.5,9.5,0,0,1,292.7,157l21.23-10.38a9.48,9.48,0,0,0,1.66-16L297,116.13a9.48,9.48,0,0,1-2-12.79l13.19-19.6A9.49,9.49,0,0,0,301.54,69l-23.41-3.25A9.48,9.48,0,0,1,270,55.74l1.63-23.58a9.49,9.49,0,0,0-13-9.44l-21.89,8.89A9.5,9.5,0,0,1,224.57,27L214.19,5.75a9.48,9.48,0,0,0-16-1.66L183.66,22.73a9.48,9.48,0,0,1-12.79,2l-19.6-13.19a9.49,9.49,0,0,0-14.7,6.57l-3.25,23.4a9.48,9.48,0,0,1-10,8.16L99.7,48.08a9.49,9.49,0,0,0-9.45,13L99.14,83a9.5,9.5,0,0,1-4.63,12.1L73.28,105.49a9.48,9.48,0,0,0-1.66,16L90.26,136a9.48,9.48,0,0,1,2,12.79l-13.19,19.6a9.49,9.49,0,0,0,6.57,14.7l23.4,3.25a9.48,9.48,0,0,1,8.16,10L115.61,220a9.49,9.49,0,0,0,13,9.44l21.89-8.89a9.5,9.5,0,0,1,12.1,4.63L173,246.4A9.48,9.48,0,0,0,189,248.06Z"/><circle class="cls-2" cx="154.26" cy="437.4" r="154.26"/><circle class="cls-3" cx="357.31" cy="325.65" r="50.36"/></g></g></svg>