<svg xmlns="http://www.w3.org/2000/svg" viewBox="0 0 511.51 570.7"><defs><style>.cls-1{fill:none;stroke:#dadbdc;stroke-width:3px;}.cls-1,.cls-2{stroke-miterlimit:10;}.cls-2{fill:#f7baba;stroke:#f7baba;stroke-width:1.19px;}</style></defs><g id="Layer_2" data-name="Layer 2"><g id="Layer_2-2" data-name="Layer 2"><path class="cls-1" d="M511.39,185.77c-78,0-137.52,64.8-137.52,145.57V517.81"/><path class="cls-1" d="M511.39,166c-90.86,0-156,68.09-156,155.66v196.2"/><path class="cls-1" d="M511.39,142.62C403.86,151,336.89,226.44,333.24,310.35V517.81"/><path class="cls-1" d="M511.39,123.47C394.54,123,311.14,220.29,311.14,317.08V517.81"/><path class="cls-1" d="M511.39,101.8C373.87,101.8,291,221.56,291,318V517.81"/><path class="cls-1" d="M511.39,80.41C343.93,87.54,269.23,228.88,269.23,318V517.81"/><path class="cls-1" d="M511.39,59.74c-192.56,5-263,169.14-263,258.25V517.81"/><path class="cls-1" d="M511.39,37.64C294.74,49,226.73,228.88,226.73,319.62V517.81"/><path class="cls-1" d="M511.39,16C266.23,31.93,204.92,228.88,204.92,318V517.81"/><path class="cls-1" d="M458.7,1.48C244.84,37.64,184.11,228.88,184.11,318V517.81"/><path class="cls-1" d="M379.9,1.48C214.9,66.87,163.39,228.88,163.39,318V517.81"/><circle class="cls-2" cx="151.49" cy="419.21" r="150.89"/></g></g></svg>