<svg xmlns="http://www.w3.org/2000/svg" viewBox="0 0 313.41 512.25"><defs><style>.cls-1{fill:#c3b64b;}.cls-2{fill:none;stroke:#dadbdc;stroke-miterlimit:10;stroke-width:2.64px;}</style></defs><g id="Layer_2" data-name="Layer 2"><g id="Layer_2-2" data-name="Layer 2"><path class="cls-1" d="M259.78,492.12l-1,20.13-1-20.13a35.28,35.28,0,0,0-33.45-33.51l-20.13-1,20.13-1a35.3,35.3,0,0,0,33.5-33.46l1-20.13,1,20.13a35.3,35.3,0,0,0,33.45,33.51l20.13,1-20.13,1A35.3,35.3,0,0,0,259.78,492.12Z"/><path class="cls-2" d="M.1,292.41c68.72,0,121.11-57.06,121.11-128.19V0"/><path class="cls-2" d="M.1,309.87c80,0,137.43-60,137.43-137.08V0"/><path class="cls-2" d="M.1,330.42C94.8,323.05,153.78,256.6,157,182.71V0"/><path class="cls-2" d="M.1,347.29C103,347.72,176.46,262,176.46,176.78V0"/><path class="cls-2" d="M.1,366.37c121.11,0,194.06-105.47,194.06-190.39V0"/><path class="cls-2" d="M.1,385.2C147.58,378.93,213.37,254.45,213.37,176V0"/><path class="cls-2" d="M.1,403.41C169.68,399,231.69,254.45,231.69,176V0"/><path class="cls-2" d="M.1,422.87c190.8-10,250.69-168.42,250.69-248.33V0"/><path class="cls-2" d="M.1,441.94C216,427.89,270,254.45,270,176V0"/><path class="cls-2" d="M2.75,461.62C240.89,434.84,288.33,254.45,288.33,176V0"/><path class="cls-2" d="M6.09,479c244.7-25.36,300.48-211.19,300.48-303V0"/></g></g></svg>