<svg xmlns="http://www.w3.org/2000/svg" viewBox="0 0 389.84 745.17"><defs><style>.cls-1{fill:#8e9094;}.cls-1,.cls-2{stroke:#8e9094;}.cls-1,.cls-2,.cls-4{stroke-miterlimit:10;}.cls-2,.cls-4{fill:none;}.cls-3{fill:#f7baba;}.cls-4{stroke:#fddec0;}</style></defs><g id="Layer_2" data-name="Layer 2"><g id="Layer_2-2" data-name="Layer 2"><circle class="cls-1" cx="76.85" cy="386.74" r="6.76"/><circle class="cls-1" cx="239.76" cy="100.4" r="7.37"/><path class="cls-2" d="M.25,375.13A193,193,0,0,0,68.44,387.5c106.87,0,193.5-86.63,193.5-193.5S175.31.5,68.44.5A193,193,0,0,0,.18,12.9"/><polygon class="cls-3" points="277.81 5.12 333.83 102.14 389.84 199.15 277.81 199.15 165.79 199.15 221.8 102.14 277.81 5.12"/><line class="cls-4" x1="143.59" y1="267.41" x2="143.59" y2="745.17"/><line class="cls-4" x1="104.46" y1="649.84" x2="183.58" y2="728.96"/><line class="cls-4" x1="87.89" y1="688.97" x2="199.79" y2="688.97"/><line class="cls-4" x1="104.18" y1="728.33" x2="183.36" y2="649.26"/></g></g></svg>